<svg xmlns="http://www.w3.org/2000/svg" width="480" height="400" viewBox="0 0 480 400"><g stroke="#fffcf5" stroke-width="18" stroke-linejoin="round"><path d="M55 262 275 52 424 294 199 354Z" fill="#bc7842"/><path d="m57 237 212-190 154 222-225 62Z" fill="#80a05a"/><path d="m53 214 218-184 151 219-228 61Z" fill="#dc8270"/><path d="m52 192 219-174 153 211-230 61Z" fill="#f2d089"/></g><path d="M76 186 267 41 393 221 195 267Z" fill="#f8e4b4"/><g stroke="#ddb572" stroke-width="7" stroke-linecap="round"><path d="m220 123 7-3m55 23 5 8m-110 49 9-3m98 33 8 2m-27-57 6-4"/></g></svg>
